<?xml version="1.0" standalone="no"?>
<!DOCTYPE svg PUBLIC "-//W3C//DTD SVG 20010904//EN"
 "http://www.w3.org/TR/2001/REC-SVG-20010904/DTD/svg10.dtd">
<svg version="1.0" xmlns="http://www.w3.org/2000/svg"
 width="4000.000000pt" height="4000.000000pt" viewBox="0 0 4000.000000 4000.000000"
 preserveAspectRatio="xMidYMid meet">

<g transform="translate(0.000000,4000.000000) scale(0.100000,-0.100000)"
fill="#000000" stroke="none">
<path d="M32798 20991 c17 -11 -103 -22 -132 -12 -31 10 -157 1 -131 -10 12
-5 -26 -6 -94 -3 -100 6 -112 5 -105 -9 12 -21 254 -267 263 -267 11 0 153
168 205 243 l48 67 -34 0 c-22 0 -28 -3 -20 -9z"/>
<path d="M7343 20478 c-56 -58 -223 -275 -223 -290 0 -5 6 -6 13 -1 6 4 102 9
212 10 110 1 240 2 289 3 l89 1 -34 37 c-64 70 -284 292 -289 292 -3 0 -29
-24 -57 -52z"/>
</g>
</svg>
